<svg width="70" height="70" viewBox="0 0 70 70" fill="none" xmlns="http://www.w3.org/2000/svg">
<path d="M35 0C15.6771 0 0 15.6771 0 35C0 54.3229 15.6771 70 35 70C54.3229 70 70 54.3229 70 35C70 15.6771 54.3229 0 35 0ZM53.0104 26.5417L32.4479 47.1771C31.7917 47.8333 30.8438 48.2708 29.8958 48.2708C28.9479 48.2708 28 47.9062 27.3438 47.1771L16.9896 36.8229C15.5312 35.3646 15.5312 33.1042 16.9896 31.6458C18.4479 30.1875 20.7083 30.1875 22.1667 31.6458L29.8958 39.375L47.9062 21.3646C49.3646 19.9062 51.625 19.9062 53.0833 21.3646C54.4688 22.8229 54.4687 25.0833 53.0104 26.5417Z" fill="#16a34a"/>
</svg>
