<svg width="38" height="50" viewBox="0 0 38 50" fill="none" xmlns="http://www.w3.org/2000/svg">
<path d="M18.7937 33.8779C23.8231 33.8779 27.9284 29.7726 27.9284 24.7432V9.50289C27.9284 4.47353 23.8232 0.368164 18.7937 0.368164C13.7643 0.368164 9.659 4.47343 9.659 9.50289V24.7432C9.659 29.7725 13.7643 33.8779 18.7937 33.8779Z" fill="white"/>
<path d="M34.034 21.7168C32.3402 21.7168 31.0072 23.1019 31.0072 24.7436C31.0072 31.467 25.5667 36.9573 18.7935 36.9573C12.0204 36.9573 6.57987 31.467 6.57987 24.7436C6.57987 23.0498 5.19475 21.7168 3.55306 21.7168C1.91136 21.7168 0.526245 23.1019 0.526245 24.7436C0.526245 33.7762 7.09518 41.3191 15.7665 42.7565V46.092C15.7665 47.7858 17.1516 49.1188 18.7933 49.1188C20.435 49.1188 21.8201 47.7337 21.8201 46.092V42.7565C30.4935 41.3192 37.0625 33.7762 37.0625 24.7436C37.0625 23.0498 35.7278 21.7168 34.034 21.7168Z" fill="white"/>
</svg>
